# xmcd
#
# Track frame offsets: 
#        150
#        19734
#        36465
#        55739
#        76214
#        100139
#        126164
#        143789
#        169889
#        189689
#        210014
#        230884
#        250447
#        268514
#        285535
#
# Disc length: 4110 seconds
#
# Revision: 1
# Processed by: cddbd v1.5.2PL0 Copyright (c) Steve Scherf et al.
# Submitted via: ExactAudioCopy v1.3
#
DISCID=d5100c0f
DTITLE=吉田拓郎 - From T Dics3
DYEAR=2018
DGENRE=R&B
TTITLE0=淋しき街
TTITLE1=ロンサム・トラベリン・マン
TTITLE2=黒い瞳
TTITLE3=憂鬱な夜の殺し方
TTITLE4=生きていなけりゃ
TTITLE5=いつでも
TTITLE6=マンボウ
TTITLE7=永遠の嘘をついてくれ
TTITLE8=女たちときたら
TTITLE9=心のままに
TTITLE10=オーボーイ
TTITLE11=紅葉
TTITLE12=夢見る時を過ぎ
TTITLE13=いつもチンチンに冷えたコーラがそこにあった
TTITLE14=夕陽と少年
EXTD=
EXTT0=
EXTT1=
EXTT2=
EXTT3=
EXTT4=
EXTT5=
EXTT6=
EXTT7=
EXTT8=
EXTT9=
EXTT10=
EXTT11=
EXTT12=
EXTT13=
EXTT14=
PLAYORDER=
